<svg xmlns="http://www.w3.org/2000/svg" viewBox="0 0 142.42 142.42"><defs><style>.cls-1{fill:#fff;}</style></defs><title>Asset 6</title><g id="Layer_2" data-name="Layer 2"><g id="Layer_1-2" data-name="Layer 1"><path class="cls-1" d="M71.21,6.91a64.3,64.3,0,1,1-64.3,64.3,64.37,64.37,0,0,1,64.3-64.3m0-6.91a71.21,71.21,0,1,0,71.21,71.21A71.21,71.21,0,0,0,71.21,0Z"/><path class="cls-1" d="M88,105.09H54.46A12.59,12.59,0,0,1,41.89,92.52V69.39H48.8V92.52a5.67,5.67,0,0,0,5.66,5.67H88a5.67,5.67,0,0,0,5.67-5.67V69.39h6.91V92.52A12.59,12.59,0,0,1,88,105.09Z"/><polygon class="cls-1" points="56.77 60.34 51.89 55.45 71.45 35.89 90.53 54.97 85.65 59.86 71.45 45.66 56.77 60.34"/><rect class="cls-1" x="67.99" y="40.78" width="6.91" height="44.74"/></g></g></svg>