<svg xmlns="http://www.w3.org/2000/svg" viewBox="0 0 152.36 152.14"><defs><style>.cls-1{fill:#1c97fc;}.cls-2{fill:#fff;}</style></defs><title>Asset 4</title><g id="Layer_2" data-name="Layer 2"><g id="Layer_1-2" data-name="Layer 1"><path class="cls-1" d="M101.6,148.21,86,143.88a10.93,10.93,0,0,0-7.49.58l-14.72,6.69a11,11,0,0,1-13.6-3.79L41.06,134A11,11,0,0,0,35,129.66l-15.58-4.34a11,11,0,0,1-8-11.64L13,97.58a11,11,0,0,0-1.88-7.28L1.93,77A11,11,0,0,1,3.29,62.91L14.84,51.59a11,11,0,0,0,3.24-6.78l1.57-16.1a11,11,0,0,1,10.08-9.88l16.12-1.26a11,11,0,0,0,6.84-3.1L64.24,3.14A11,11,0,0,1,78.31,2.05l13.16,9.4a11,11,0,0,0,7.24,2l16.12-1.26a11,11,0,0,1,11.49,8.22l4,15.66a11,11,0,0,0,4.25,6.19l13.16,9.41a11,11,0,0,1,3.52,13.67L144.3,80a11,11,0,0,0-.72,7.48l4,15.66a11,11,0,0,1-6.09,12.74l-14.72,6.69a11,11,0,0,0-5.37,5.26l-7,14.59A11,11,0,0,1,101.6,148.21Z"/><path class="cls-2" d="M62.91,104.16,41.83,83.08a4,4,0,1,1,5.71-5.71L62.91,92.74l41.91-41.91a4,4,0,0,1,5.71,5.71Z"/></g></g></svg>