<?xml version="1.0" encoding="UTF-8"?>
<svg version="1.1" id="Layer_1" xmlns="http://www.w3.org/2000/svg" xmlns:xlink="http://www.w3.org/1999/xlink" x="0px" y="0px" viewBox="0 0 122.88 95.21" style="enable-background:new 0 0 122.88 95.21" xml:space="preserve"><g><path d="M68.37,62.24c0.34-0.06,0.68-0.08,1-0.08c0.15,0,0.3,0.01,0.45,0.03V50.66l-12.46,3.58v14.27c0,0.05,0,0.21,0.01,0.24 c0,1.1-0.56,2.18-1.48,3.05c-0.89,0.84-2.11,1.48-3.46,1.71c-0.37,0.06-0.73,0.1-1.08,0.1c-1.01,0-1.92-0.26-2.61-0.73 c-0.72-0.48-1.2-1.17-1.35-2.01c-0.03-0.17-0.05-0.35-0.05-0.52c0-1.1,0.56-2.18,1.48-3.04c0.89-0.84,2.11-1.48,3.46-1.71 c0.5-0.09,0.99-0.11,1.45-0.08c0.28,0.02,0.54,0.06,0.79,0.11l0-17.81h0.48l17.64-4.04v20.69l0.03,0.22 c0.01,0.09,0.01,0.18,0.01,0.26c0,0.94-0.48,1.86-1.26,2.59c-0.75,0.71-1.79,1.25-2.93,1.45c-0.31,0.05-0.62,0.08-0.91,0.08 c-0.86,0-1.63-0.22-2.22-0.62c-0.61-0.41-1.03-1-1.15-1.72c-0.03-0.15-0.04-0.3-0.04-0.45c0-0.94,0.48-1.86,1.26-2.59 C66.2,62.97,67.23,62.43,68.37,62.24L68.37,62.24z M61.44,31.38c7.44,0,14.18,3.02,19.06,7.89c4.88,4.88,7.89,11.61,7.89,19.06 c0,7.44-3.02,14.18-7.89,19.05c-4.88,4.88-11.61,7.89-19.06,7.89c-7.44,0-14.18-3.02-19.05-7.89c-4.88-4.88-7.89-11.61-7.89-19.05 c0-7.44,3.02-14.18,7.89-19.06C47.26,34.4,54,31.38,61.44,31.38L61.44,31.38z M77.15,42.61c-4.02-4.02-9.58-6.51-15.71-6.51 c-6.14,0-11.69,2.49-15.71,6.51c-4.02,4.02-6.51,9.58-6.51,15.71c0,6.14,2.49,11.69,6.51,15.71c4.02,4.02,9.58,6.51,15.71,6.51 c6.14,0,11.69-2.49,15.71-6.51c4.02-4.02,6.51-9.58,6.51-15.71C83.66,52.19,81.18,46.63,77.15,42.61L77.15,42.61z M2.48,20.74h4.5 v-9.86c0-1.37,1.11-2.48,2.48-2.48h4.41V2.48c0-1.37,1.11-2.48,2.48-2.48h40.26c1.37,0,2.48,1.11,2.48,2.48V8.4h54.3 c1.37,0,2.48,1.11,2.48,2.48v9.86h4.53c1.37,0,2.48,1.11,2.48,2.48c0,0.18-0.02,0.36-0.06,0.52l-8.68,63.81 c-0.28,2.08-1.19,4.01-2.59,5.41c-1.38,1.38-3.21,2.24-5.36,2.24H14.7c-2.16,0-4.03-0.87-5.43-2.26c-1.41-1.41-2.31-3.35-2.54-5.46 l-6.72-64c-0.14-1.36,0.85-2.58,2.21-2.72C2.31,20.75,2.39,20.75,2.48,20.74L2.48,20.74L2.48,20.74L2.48,20.74z M9.46,25.71H5.23 l6.44,61.27c0.1,0.98,0.5,1.85,1.1,2.46c0.5,0.5,1.17,0.81,1.93,0.81h91.5c0.75,0,1.38-0.3,1.87-0.79 c0.62-0.62,1.03-1.53,1.17-2.55l8.32-61.19L9.46,25.71L9.46,25.71L9.46,25.71z M11.94,13.37v7.36l98.97-1.05v-6.31h-54.3 c-1.37,0-2.48-1.11-2.48-2.48V4.97h-35.3v5.92c0,1.37-1.11,2.48-2.48,2.48L11.94,13.37L11.94,13.37L11.94,13.37z"/></g></svg>